<?xml version="1.0" encoding="UTF-8"?><svg id="jamesHernandezLogoDesktop" role="img" xmlns="http://www.w3.org/2000/svg" viewBox="0 0 1553.21 183.19"><title>James Hernandez</title><defs><style>.jamesh-1{fill:#f9cc0e;}.jamesh-2{fill:#f7a621;}.jamesh-3{fill:#e84723;}.jamesh-4{fill:#8dc042;}.jamesh-5{fill:#d4da33;}.jamesh-6{fill:#108599;}.jamesh-7{fill:#1b6b8c;}</style></defs><g id="layer-xyz"><g><path class="jamesh-3" d="M57.04,0V114.1c0,14.39,2.99,30.13-2.99,43.74-2.6,5.94-6.21,11.4-10.97,15.82-3.61,3.34-11.08,9.52-16.32,9.52h59.68V0h-29.4Z"/><path class="jamesh-6" d="M0,0V148.73c2.13,.68,4.16,1.48,6.96,1.48,10.77,0,16.66-7.33,16.66-23.02V0H0Z"/></g><g><path class="jamesh-4" d="M148.83,46.3h-.97c-1.7,14.93-4.4,37.16-6.86,50.25l-3.91,20.94-1.9,9.74h26.32l-1.89-9.74-3.92-20.94c-2.22-13.1-5.15-35.33-6.88-50.25Z"/><polygon class="jamesh-5" points="128.42 162.57 124.6 183.19 172.12 183.19 168.3 162.57 128.42 162.57"/><polygon class="jamesh-6" points="208.13 0 166.97 0 208.13 183.17 208.13 0"/></g><g><path class="jamesh-5" d="M288.01,118.99c1.94-6.8,28.03-118.99,28.03-118.99h-56.42s25.44,112.19,27.38,118.99h1Z"/><path class="jamesh-1" d="M329.9,71.44l-1.24-.52-24,98.98h-34.31l-24.03-98.98-1.21,.52c.73,22.25,1.7,44.49,2.46,66.74v45.01h79.63v-45.01c.97-22.24,1.72-44.48,2.69-66.74Z"/></g><polygon class="jamesh-4" points="457.62 183.17 457.62 0 441.76 0 441.76 35.33 388.1 35.33 388.1 73.27 434.53 73.27 434.53 107.29 388.1 107.29 388.1 147.85 444.22 147.85 444.22 183.17 457.62 183.17"/><g><g><path class="jamesh-3" d="M457.62,65.8v61.44h27.81v2.31c0,14.65,6.86,20.94,17.89,20.94s17.14-7.08,17.14-16.23c0-25.86-48.42-32.62-62.85-68.46Z"/><path class="jamesh-4" d="M481.59,0h-23.97V24.22c4.5-10.91,12.39-19.62,23.97-24.22Z"/><path class="jamesh-1" d="M457.62,162.12v21.06h24.18c-10.66-3.82-18.69-11.13-24.18-21.06Z"/></g><g><path class="jamesh-6" d="M553.27,43.3V0h-28.33c16.63,6.66,26.51,21.93,28.33,43.3Z"/><path class="jamesh-2" d="M553.27,153.72c-4.83,13.77-14.76,24.44-29.48,29.47h29.48v-29.47Z"/><path class="jamesh-5" d="M553.27,114.03V53.96h-35.02v-3.97c0-12.05-5.13-18.06-15.17-18.06-9.07,0-14.46,5.24-14.46,13.61,0,24.92,50.96,29.78,64.65,68.49Z"/></g></g><rect class="jamesh-4" x="685.77" width="35.28" height="73.27"/><rect class="jamesh-5" x="756.09" width="11.42" height="183.19"/><rect class="jamesh-3" x="685.77" y="108.55" width="35.28" height="74.59"/><polygon class="jamesh-4" points="871.88 183.17 871.88 0 856.03 0 856.03 35.33 802.37 35.33 802.37 73.27 848.79 73.27 848.79 107.29 802.37 107.29 802.37 147.85 858.49 147.85 858.49 183.17 871.88 183.17"/><g><path class="jamesh-6" d="M941.04,60.71c0-16.74-6.64-25.64-18.88-25.64h-14.46v51.03h14.46c12.24,0,18.88-8.89,18.88-25.39Z"/><polygon class="jamesh-4" points="907.7 121.42 907.7 156.35 907.7 182.93 907.7 183.19 947.41 183.19 919.95 121.42 907.7 121.42"/><g><path class="jamesh-2" d="M973.65,38.02V0h-48.07c24.91,1.01,41.64,14.72,48.07,38.02Z"/><path class="jamesh-3" d="M973.65,83.13c-3.67,13.45-10.53,24.02-20.63,30.46l20.63,44.16V83.13Z"/></g></g><g><path class="jamesh-4" d="M1053.41,102.72V0h-40.68l32.58,79.54c2.75,7.61,5.42,15.41,8.1,23.18Z"/><polygon class="jamesh-7" points="1012.74 78.15 1012.74 146.03 1012.74 182.93 1012.74 183.19 1053.41 183.19 1024.51 112.27 1012.74 78.15"/></g><g><path class="jamesh-4" d="M1116.1,46.3h-.97c-1.7,14.93-4.4,37.16-6.86,50.25l-3.91,20.94-1.9,9.74h26.32l-1.89-9.74-3.92-20.94c-2.22-13.1-5.15-35.33-6.88-50.25Z"/><polygon class="jamesh-5" points="1095.69 162.57 1091.86 183.19 1139.39 183.19 1135.56 162.57 1095.69 162.57"/><polygon class="jamesh-6" points="1175.4 0 1134.23 0 1175.4 183.17 1175.4 0"/></g><g><path class="jamesh-4" d="M1256.34,102.72V0h-40.68l32.58,79.54c2.75,7.61,5.42,15.41,8.1,23.18Z"/><polygon class="jamesh-7" points="1215.66 78.15 1215.66 146.03 1215.66 182.93 1215.66 183.19 1256.34 183.19 1227.43 112.27 1215.66 78.15"/></g><g><path class="jamesh-5" d="M1331.1,121.16V60.71c0-16.75-6.62-25.39-19.12-25.39h-12.74v112.52h12.74c12.5,0,19.12-9.16,19.12-26.69Z"/><g><path class="jamesh-1" d="M1364.48,43.03V0h-52.99c28.76,0,47.46,15.77,52.99,43.03Z"/><path class="jamesh-2" d="M1364.48,139.3c-5.48,27.78-23.97,43.88-52.5,43.88h52.5v-43.88Z"/></g></g><polygon class="jamesh-4" points="1464.41 183.17 1464.41 0 1448.56 0 1448.56 35.33 1394.89 35.33 1394.89 73.27 1441.32 73.27 1441.32 107.29 1394.89 107.29 1394.89 147.85 1451.02 147.85 1451.02 183.17 1464.41 183.17"/><g><polygon class="jamesh-7" points="1475.15 35.07 1475.15 0 1464.41 0 1464.41 183.19 1470.99 183.19 1470.99 182.93 1470.99 158.06 1525.38 35.07 1475.15 35.07"/><polygon class="jamesh-5" points="1553.21 58.99 1514.12 147.61 1553.21 147.61 1553.21 58.99"/></g></g></svg>