<?xml version="1.0" encoding="UTF-8"?><svg id="jamesHernandezLogo" xmlns="http://www.w3.org/2000/svg" role="img" viewBox="0 0 867.44 365.97"><title>James Hernandez</title><defs><style>.jahlogo-1{fill:#f9cc0e;}.jahlogo-2{fill:#f7a621;}.jahlogo-3{fill:#e84723;}.jahlogo-4{fill:#8dc042;}.jahlogo-5{fill:#d4da33;}.jahlogo-6{fill:#108599;}.jahlogo-7{fill:#1b6b8c;}</style></defs><g id="Layer_1-2"><g><path class="jahlogo-3" d="M207.7,0V114.1c0,14.39,2.99,30.13-2.99,43.74-2.6,5.94-6.21,11.4-10.97,15.82-3.61,3.34-11.08,9.52-16.32,9.52h59.68V0h-29.4Z"/><path class="jahlogo-6" d="M150.66,0V148.73c2.13,.68,4.16,1.48,6.96,1.48,10.77,0,16.66-7.33,16.66-23.03V0h-23.62Z"/></g><g><path class="jahlogo-4" d="M299.49,46.3h-.97c-1.7,14.93-4.4,37.16-6.86,50.25l-3.91,20.94-1.9,9.74h26.32l-1.89-9.74-3.92-20.94c-2.22-13.1-5.15-35.33-6.88-50.25Z"/><polygon class="jahlogo-5" points="279.08 162.57 275.25 183.19 322.78 183.19 318.95 162.57 279.08 162.57"/><polygon class="jahlogo-6" points="358.79 0 317.63 0 358.79 183.17 358.79 0"/></g><g><path class="jahlogo-5" d="M438.66,118.99c1.94-6.8,28.03-118.99,28.03-118.99h-56.42s25.44,112.19,27.38,118.99h1Z"/><path class="jahlogo-1" d="M480.56,71.44l-1.24-.52-24,98.98h-34.31l-24.03-98.98-1.21,.52c.73,22.25,1.7,44.49,2.46,66.74v45.01h79.63v-45.01c.97-22.24,1.72-44.48,2.69-66.74Z"/></g><polygon class="jahlogo-4" points="608.28 183.17 608.28 0 592.42 0 592.42 35.33 538.76 35.33 538.76 73.27 585.18 73.27 585.18 107.29 538.76 107.29 538.76 147.85 594.88 147.85 594.88 183.17 608.28 183.17"/><g><g><path class="jahlogo-3" d="M608.28,65.8v61.44h27.81v2.31c0,14.65,6.86,20.94,17.89,20.94s17.14-7.08,17.14-16.23c0-25.86-48.42-32.62-62.85-68.46Z"/><path class="jahlogo-4" d="M632.25,0h-23.97V24.22c4.5-10.91,12.39-19.62,23.97-24.22Z"/><path class="jahlogo-1" d="M608.28,162.12v21.06h24.18c-10.66-3.82-18.69-11.13-24.18-21.06Z"/></g><g><path class="jahlogo-6" d="M703.93,43.3V0h-28.33c16.63,6.66,26.51,21.93,28.33,43.3Z"/><path class="jahlogo-2" d="M703.93,153.72c-4.83,13.77-14.76,24.44-29.48,29.47h29.48v-29.47Z"/><path class="jahlogo-5" d="M703.93,114.03V53.96h-35.02v-3.97c0-12.05-5.13-18.06-15.17-18.06-9.07,0-14.46,5.24-14.46,13.61,0,24.92,50.96,29.78,64.65,68.49Z"/></g></g><rect class="jahlogo-4" y="182.78" width="35.28" height="73.27"/><rect class="jahlogo-5" x="70.32" y="182.78" width="11.42" height="183.19"/><rect class="jahlogo-3" y="291.33" width="35.28" height="74.59"/><polygon class="jahlogo-4" points="186.12 365.96 186.12 182.78 170.26 182.78 170.26 218.11 116.6 218.11 116.6 256.05 163.03 256.05 163.03 290.07 116.6 290.07 116.6 330.63 172.72 330.63 172.72 365.96 186.12 365.96"/><g><path class="jahlogo-6" d="M255.27,243.5c0-16.74-6.64-25.64-18.88-25.64h-14.46v51.03h14.46c12.24,0,18.88-8.89,18.88-25.39Z"/><polygon class="jahlogo-4" points="221.93 304.21 221.93 339.14 221.93 365.71 221.93 365.97 261.64 365.97 234.18 304.21 221.93 304.21"/><g><path class="jahlogo-2" d="M287.88,220.8v-38.02h-48.07c24.91,1.01,41.64,14.72,48.07,38.02Z"/><path class="jahlogo-3" d="M287.88,265.91c-3.67,13.45-10.53,24.02-20.63,30.46l20.63,44.16v-74.62Z"/></g></g><g><path class="jahlogo-4" d="M367.65,285.51v-102.72h-40.68l32.58,79.54c2.75,7.61,5.42,15.41,8.1,23.18Z"/><polygon class="jahlogo-7" points="326.97 260.94 326.97 328.81 326.97 365.71 326.97 365.97 367.65 365.97 338.74 295.05 326.97 260.94"/></g><g><path class="jahlogo-4" d="M430.33,229.09h-.97c-1.7,14.93-4.4,37.16-6.86,50.25l-3.91,20.94-1.9,9.74h26.32l-1.89-9.74-3.92-20.94c-2.22-13.1-5.15-35.33-6.88-50.25Z"/><polygon class="jahlogo-5" points="409.92 345.35 406.09 365.97 453.62 365.97 449.79 345.35 409.92 345.35"/><polygon class="jahlogo-6" points="489.63 182.78 448.47 182.78 489.63 365.96 489.63 182.78"/></g><g><path class="jahlogo-4" d="M570.57,285.51v-102.72h-40.68l32.58,79.54c2.75,7.61,5.42,15.41,8.1,23.18Z"/><polygon class="jahlogo-7" points="529.89 260.94 529.89 328.81 529.89 365.71 529.89 365.97 570.57 365.97 541.66 295.05 529.89 260.94"/></g><g><path class="jahlogo-5" d="M645.33,303.94v-60.45c0-16.75-6.62-25.39-19.12-25.39h-12.74v112.52h12.74c12.5,0,19.12-9.16,19.12-26.69Z"/><g><path class="jahlogo-1" d="M678.72,225.81v-43.03h-52.99c28.76,0,47.46,15.77,52.99,43.03Z"/><path class="jahlogo-2" d="M678.72,322.08c-5.48,27.78-23.97,43.88-52.5,43.88h52.5v-43.88Z"/></g></g><polygon class="jahlogo-4" points="778.64 365.96 778.64 182.78 762.79 182.78 762.79 218.11 709.13 218.11 709.13 256.05 755.55 256.05 755.55 290.07 709.13 290.07 709.13 330.63 765.25 330.63 765.25 365.96 778.64 365.96"/><g><polygon class="jahlogo-7" points="789.38 217.86 789.38 182.78 778.64 182.78 778.64 365.97 785.22 365.97 785.22 365.71 785.22 340.85 839.61 217.86 789.38 217.86"/><polygon class="jahlogo-5" points="867.44 241.77 828.36 330.39 867.44 330.39 867.44 241.77"/></g></g></svg>