<?xml version="1.0" encoding="UTF-8"?><svg id="southTejasLogo" xmlns="http://www.w3.org/2000/svg" role="img" viewBox="0 0 592.83 550.09"><defs><style>.southTejas-1{fill:#f9cc0e;}.southTejas-2{fill:#f7a621;}.southTejas-3{fill:#e84723;}.southTejas-4{fill:#8dc042;}.southTejas-5{fill:#c30d23;}.southTejas-6{fill:#d4da33;}.southTejas-7{fill:#108599;}.southTejas-8{fill:#1b6b8c;}</style></defs><g id="Layer_1-2"><g><g><path class="southTejas-3" d="M0,66.26v61.44H27.81v2.31c0,14.65,6.86,20.94,17.89,20.94s17.14-7.08,17.14-16.23c0-25.86-48.42-32.62-62.85-68.46Z"/><path class="southTejas-4" d="M23.97,.46H0V24.68C4.5,13.77,12.39,5.06,23.97,.46Z"/><path class="southTejas-1" d="M0,162.58v21.06H24.18c-10.66-3.82-18.69-11.13-24.18-21.06Z"/></g><g><path class="southTejas-7" d="M95.65,43.76V.46h-28.33c16.63,6.66,26.51,21.93,28.33,43.3Z"/><path class="southTejas-2" d="M95.65,154.18c-4.83,13.77-14.76,24.44-29.48,29.47h29.48v-29.47Z"/><path class="southTejas-6" d="M95.65,114.49V54.42H60.63v-3.97c0-12.05-5.13-18.06-15.17-18.06-9.07,0-14.46,5.24-14.46,13.61,0,24.92,50.96,29.78,64.65,68.49Z"/></g></g><g><path class="southTejas-6" d="M169.3,59.61c0-17.27-6.61-26.43-19.59-26.43s-19.59,9.17-19.59,26.43V123.99c0,17.27,6.61,26.42,19.59,26.42s19.59-9.16,19.59-26.42V59.61Z"/><g><path class="southTejas-3" d="M95.65,137.75v45.9h35.39c-19.63-5.99-31.83-22.26-35.39-45.9Z"/><path class="southTejas-1" d="M95.65,45.45C99.17,22.7,110.73,6.81,129.3,.46h-33.65V45.45Z"/></g><g><path class="southTejas-1" d="M204.5,137.75v45.9h-35.38c19.63-5.99,31.82-22.26,35.38-45.9Z"/><path class="southTejas-7" d="M204.5,45.45c-3.52-22.75-15.08-38.64-33.64-44.99h33.64V45.45Z"/></g></g><g><path class="southTejas-4" d="M240.55,.46V124.51c0,16.75,6.12,25.9,18.38,25.9s18.39-9.16,18.39-25.9V.46h-36.77Z"/><path class="southTejas-8" d="M205.5,183.65h35.05c-20.11-6.23-32.2-23.55-35.05-48.55v48.55Z"/><path class="southTejas-2" d="M312.47,134.38c-2.68,25.4-14.84,42.96-35.15,49.26h35.15v-49.26Z"/></g><polygon class="southTejas-4" points="312.47 32.66 312.47 183.65 345.36 183.65 345.36 183.39 345.36 32.66 312.47 32.66"/><polygon class="southTejas-7" points="413.26 34.54 381.13 34.54 381.13 183.39 381.13 183.65 413.26 183.65 413.26 34.54"/><rect class="southTejas-4" x="454.97" width="35.28" height="73.27"/><rect class="southTejas-6" x="525.29" y=".46" width="67.3" height="183.19"/><rect class="southTejas-3" x="454.97" y="108.59" width="35.28" height="75.05"/><g><path class="southTejas-6" d="M34.82,488.07v-60.45c0-16.75-6.62-25.39-19.12-25.39H2.96v112.52H15.7c12.5,0,19.12-9.16,19.12-26.69Z"/><g><path class="southTejas-1" d="M68.2,409.94v-43.03H15.21c28.76,0,47.46,15.77,52.99,43.03Z"/><path class="southTejas-2" d="M68.2,506.21c-5.48,27.78-23.97,43.88-52.5,43.88h52.5v-43.88Z"/></g></g><polygon class="southTejas-4" points="170.19 550.08 170.19 366.91 154.34 366.91 154.34 402.24 100.67 402.24 100.67 440.18 147.1 440.18 147.1 474.2 100.67 474.2 100.67 514.76 156.8 514.76 156.8 550.08 170.19 550.08"/><g><g><path class="southTejas-3" d="M170.03,432.7v61.44h27.81v2.31c0,14.65,6.86,20.94,17.89,20.94s17.14-7.08,17.14-16.23c0-25.86-48.42-32.62-62.85-68.46Z"/><path class="southTejas-4" d="M194,366.9h-23.97v24.22c4.5-10.91,12.39-19.62,23.97-24.22Z"/><path class="southTejas-1" d="M170.03,529.03v21.06h24.18c-10.66-3.82-18.69-11.13-24.18-21.06Z"/></g><g><path class="southTejas-7" d="M265.68,410.21v-43.3h-28.33c16.63,6.66,26.51,21.93,28.33,43.3Z"/><path class="southTejas-2" d="M265.68,520.62c-4.83,13.77-14.76,24.44-29.48,29.47h29.48v-29.47Z"/><path class="southTejas-6" d="M265.68,480.94v-60.07h-35.02v-3.97c0-12.05-5.13-18.06-15.17-18.06-9.07,0-14.46,5.24-14.46,13.61,0,24.92,50.96,29.78,64.65,68.49Z"/></g></g><rect class="southTejas-7" x="309.63" y="366.91" width="29.55" height="183.17"/><g><g><path class="southTejas-8" d="M338.9,498.09v52h32.7c-20.04-6.64-31.59-24.48-32.7-52Z"/><path class="southTejas-7" d="M338.9,418.74c1.11-26.85,11.95-44.69,31.01-51.83h-31.01v51.83Z"/></g><g><path class="southTejas-2" d="M444.36,408.98v-42.07h-30.56c16.75,6.24,26.86,20.82,30.56,42.07Z"/><path class="southTejas-3" d="M411.88,494.15h-10.62v-33.72h43.1v-20.26h-33.14v-19.11c-1.36-15.22-7.15-21.71-19.81-21.71-10.53,0-16.66,7.31-16.66,23.54v71.19c0,15.7,5.89,23.01,16.66,23.01,13.27,0,19.36-6.7,20.49-22.41h-.01v-.55Z"/><path class="southTejas-5" d="M444.36,512.61c-4.48,19.28-15.46,32.08-32.33,37.48h32.33v-37.48Z"/></g></g><g><path class="southTejas-4" d="M524.77,469.63v-102.72h-40.68l32.58,79.54c2.75,7.61,5.42,15.41,8.1,23.18Z"/><polygon class="southTejas-8" points="484.1 445.06 484.1 512.93 484.1 549.84 484.1 550.09 524.77 550.09 495.87 479.17 484.1 445.06"/></g><rect class="southTejas-6" x="559.33" y="366.91" width="33.49" height="183.18"/><polygon class="southTejas-7" points="186.3 216.27 154.17 216.27 154.17 366.53 154.17 366.79 186.3 366.79 186.3 216.27"/><polygon class="southTejas-4" points="298.47 366.76 298.47 183.58 282.61 183.58 282.61 218.91 228.95 218.91 228.95 256.85 275.38 256.85 275.38 290.88 228.95 290.88 228.95 331.43 285.07 331.43 285.07 366.76 298.47 366.76"/><g><path class="southTejas-4" d="M437.44,229.89h-.97c-1.7,14.93-4.4,37.16-6.86,50.25l-3.91,20.94-1.9,9.74h26.32l-1.89-9.74-3.92-20.94c-2.22-13.1-5.15-35.33-6.88-50.25Z"/><polygon class="southTejas-6" points="417.03 346.15 413.2 366.77 460.73 366.77 456.9 346.15 417.03 346.15"/><polygon class="southTejas-7" points="496.74 183.58 455.58 183.58 496.74 366.76 496.74 183.58"/></g><g><g><path class="southTejas-3" d="M497.17,249.38v61.44h27.81v2.31c0,14.65,6.86,20.94,17.89,20.94s17.14-7.08,17.14-16.23c0-25.86-48.42-32.62-62.85-68.46Z"/><path class="southTejas-4" d="M521.15,183.58h-23.97v24.22c4.5-10.91,12.39-19.62,23.97-24.22Z"/><path class="southTejas-1" d="M497.17,345.71v21.06h24.18c-10.66-3.82-18.69-11.13-24.18-21.06Z"/></g><g><path class="southTejas-7" d="M592.83,226.89v-43.3h-28.33c16.63,6.66,26.51,21.93,28.33,43.3Z"/><path class="southTejas-2" d="M592.83,337.3c-4.83,13.77-14.76,24.44-29.48,29.47h29.48v-29.47Z"/><path class="southTejas-6" d="M592.83,297.62v-60.07h-35.02v-3.97c0-12.05-5.13-18.06-15.17-18.06-9.07,0-14.46,5.24-14.46,13.61,0,24.92,50.96,29.78,64.65,68.49Z"/></g></g><g><path class="southTejas-3" d="M355.18,183.58v114.1c0,14.39,2.99,30.13-2.99,43.74-2.6,5.94-6.21,11.4-10.97,15.82-3.61,3.34-11.08,9.52-16.32,9.52h59.68V183.58h-29.4Z"/><path class="southTejas-7" d="M298.14,183.58v148.73c2.13,.68,4.16,1.48,6.96,1.48,10.77,0,16.66-7.33,16.66-23.02v-127.18h-23.62Z"/></g><rect class="southTejas-6" x=".02" y="217.09" width="109.16" height="150.21"/></g></svg>