<?xml version="1.0" encoding="UTF-8"?><svg id="southTejasLogoDesktop" role="img" xmlns="http://www.w3.org/2000/svg" viewBox="0 0 1838.93 184.65"><title>South Tejas Design</title><defs><style>.southTejas-1{fill:#f9cc0e;}.southTejas-2{fill:#f7a621;}.southTejas-3{fill:#e84723;}.southTejas-4{fill:#8dc042;}.southTejas-5{fill:#c30d23;}.southTejas-6{fill:#d4da33;}.southTejas-7{fill:#108599;}.southTejas-8{fill:#1b6b8c;}</style></defs><g id="Layer_1-2"><g><g><path class="southTejas-3" d="M0,66.06v61.44H27.81v2.31c0,14.65,6.86,20.94,17.89,20.94s17.14-7.08,17.14-16.23c0-25.86-48.42-32.62-62.85-68.46Z"/><path class="southTejas-4" d="M23.97,.26H0V24.48C4.5,13.56,12.39,4.86,23.97,.26Z"/><path class="southTejas-1" d="M0,162.38v21.06H24.18c-10.66-3.82-18.69-11.13-24.18-21.06Z"/></g><g><path class="southTejas-7" d="M95.65,43.56V.26h-28.33c16.63,6.66,26.51,21.93,28.33,43.3Z"/><path class="southTejas-2" d="M95.65,153.98c-4.83,13.77-14.76,24.44-29.48,29.47h29.48v-29.47Z"/><path class="southTejas-6" d="M95.65,114.29V54.22H60.63v-3.97c0-12.05-5.13-18.06-15.17-18.06-9.07,0-14.46,5.24-14.46,13.61,0,24.92,50.96,29.78,64.65,68.49Z"/></g></g><g><path class="southTejas-6" d="M169.3,59.41c0-17.27-6.61-26.43-19.59-26.43s-19.59,9.17-19.59,26.43V123.79c0,17.27,6.61,26.42,19.59,26.42s19.59-9.16,19.59-26.42V59.41Z"/><g><path class="southTejas-3" d="M95.65,137.55v45.9h35.39c-19.63-5.99-31.83-22.26-35.39-45.9Z"/><path class="southTejas-1" d="M95.65,45.25C99.17,22.5,110.73,6.61,129.3,.26h-33.65V45.25Z"/></g><g><path class="southTejas-1" d="M204.5,137.55v45.9h-35.38c19.63-5.99,31.82-22.26,35.38-45.9Z"/><path class="southTejas-7" d="M204.5,45.25c-3.52-22.75-15.08-38.64-33.64-44.99h33.64V45.25Z"/></g></g><g><path class="southTejas-4" d="M240.55,1V125.05c0,16.75,6.12,25.9,18.38,25.9s18.39-9.16,18.39-25.9V1h-36.77Z"/><path class="southTejas-8" d="M205.5,184.19h35.05c-20.11-6.23-32.2-23.55-35.05-48.55v48.55Z"/><path class="southTejas-2" d="M312.47,134.92c-2.68,25.4-14.84,42.96-35.15,49.26h35.15v-49.26Z"/></g><polygon class="southTejas-4" points="312.47 33.66 312.47 184.65 345.36 184.65 345.36 184.39 345.36 33.66 312.47 33.66"/><polygon class="southTejas-7" points="413.26 33.66 381.13 33.66 381.13 182.5 381.13 182.76 413.26 182.76 413.26 33.66"/><rect class="southTejas-4" x="454.97" y="1" width="35.28" height="73.27"/><rect class="southTejas-6" x="525.29" y="33.97" width="134.59" height="150.21"/><rect class="southTejas-3" x="454.97" y="109.59" width="35.28" height="75.05"/><polygon class="southTejas-7" points="732.78 33.66 700.65 33.66 700.65 183.92 700.65 184.17 732.78 184.17 732.78 33.66"/><polygon class="southTejas-4" points="844.95 184.18 844.95 1.01 829.1 1.01 829.1 36.33 775.44 36.33 775.44 74.27 821.86 74.27 821.86 108.3 775.44 108.3 775.44 148.85 831.56 148.85 831.56 184.18 844.95 184.18"/><g><path class="southTejas-4" d="M985.09,47.3h-.97c-1.7,14.93-4.4,37.16-6.86,50.25l-3.91,20.94-1.9,9.74h26.32l-1.89-9.74-3.92-20.94c-2.22-13.1-5.15-35.33-6.88-50.25Z"/><polygon class="southTejas-6" points="964.68 163.57 960.85 184.19 1008.38 184.19 1004.55 163.57 964.68 163.57"/><polygon class="southTejas-7" points="1044.39 1 1003.23 1 1044.39 184.17 1044.39 1"/></g><g><g><path class="southTejas-3" d="M1044.61,67.24v61.44h27.81v2.31c0,14.65,6.86,20.94,17.89,20.94s17.14-7.08,17.14-16.23c0-25.86-48.42-32.62-62.85-68.46Z"/><path class="southTejas-4" d="M1068.58,1.44h-23.97V25.66c4.5-10.91,12.39-19.62,23.97-24.22Z"/><path class="southTejas-1" d="M1044.61,163.57v21.06h24.18c-10.66-3.82-18.69-11.13-24.18-21.06Z"/></g><g><path class="southTejas-7" d="M1140.26,44.75V1.44h-28.33c16.63,6.66,26.51,21.93,28.33,43.3Z"/><path class="southTejas-2" d="M1140.26,155.16c-4.83,13.77-14.76,24.44-29.48,29.47h29.48v-29.47Z"/><path class="southTejas-6" d="M1140.26,115.47V55.4h-35.02v-3.97c0-12.05-5.13-18.06-15.17-18.06-9.07,0-14.46,5.24-14.46,13.61,0,24.92,50.96,29.78,64.65,68.49Z"/></g></g><g><path class="southTejas-6" d="M1279.81,121.17V60.72c0-16.75-6.62-25.39-19.12-25.39h-12.74v112.52h12.74c12.5,0,19.12-9.16,19.12-26.69Z"/><g><path class="southTejas-1" d="M1313.19,43.03V0h-52.99c28.76,0,47.46,15.77,52.99,43.03Z"/><path class="southTejas-2" d="M1313.19,139.3c-5.48,27.78-23.97,43.88-52.5,43.88h52.5v-43.88Z"/></g></g><polygon class="southTejas-4" points="1415.18 183.18 1415.18 0 1399.33 0 1399.33 35.33 1345.66 35.33 1345.66 73.27 1392.09 73.27 1392.09 107.3 1345.66 107.3 1345.66 147.85 1401.79 147.85 1401.79 183.18 1415.18 183.18"/><g><g><path class="southTejas-3" d="M1415.02,65.8v61.44h27.81v2.31c0,14.65,6.86,20.94,17.89,20.94s17.14-7.08,17.14-16.23c0-25.86-48.42-32.62-62.85-68.46Z"/><path class="southTejas-4" d="M1438.99,0h-23.97V24.22c4.5-10.91,12.39-19.62,23.97-24.22Z"/><path class="southTejas-1" d="M1415.02,162.12v21.06h24.18c-10.66-3.82-18.69-11.13-24.18-21.06Z"/></g><g><path class="southTejas-7" d="M1510.67,43.3V0h-28.33c16.63,6.66,26.51,21.93,28.33,43.3Z"/><path class="southTejas-2" d="M1510.67,153.72c-4.83,13.77-14.76,24.44-29.48,29.47h29.48v-29.47Z"/><path class="southTejas-6" d="M1510.67,114.03V53.96h-35.02v-3.97c0-12.05-5.13-18.06-15.17-18.06-9.07,0-14.46,5.24-14.46,13.61,0,24.92,50.96,29.78,64.65,68.49Z"/></g></g><rect class="southTejas-7" x="1554.62" y="0" width="29.55" height="183.17"/><g><g><path class="southTejas-8" d="M1583.89,131.18v52h32.7c-20.04-6.64-31.59-24.48-32.7-52Z"/><path class="southTejas-7" d="M1583.89,51.84c1.11-26.85,11.95-44.69,31.01-51.83h-31.01V51.84Z"/></g><g><path class="southTejas-2" d="M1689.35,42.07V0h-30.56c16.75,6.24,26.86,20.82,30.56,42.07Z"/><path class="southTejas-3" d="M1656.87,127.24h-10.62v-33.72h43.1v-20.26h-33.14v-19.11c-1.36-15.22-7.15-21.71-19.81-21.71-10.53,0-16.66,7.31-16.66,23.54V127.19c0,15.7,5.89,23.01,16.66,23.01,13.27,0,19.36-6.7,20.49-22.41h-.01v-.55Z"/><path class="southTejas-5" d="M1689.35,145.7c-4.48,19.28-15.46,32.08-32.33,37.48h32.33v-37.48Z"/></g></g><g><path class="southTejas-4" d="M1769.76,102.72V0h-40.68l32.58,79.54c2.75,7.61,5.42,15.41,8.1,23.18Z"/><polygon class="southTejas-8" points="1729.09 78.15 1729.09 146.03 1729.09 182.93 1729.09 183.19 1769.76 183.19 1740.86 112.27 1729.09 78.15"/></g><rect class="southTejas-6" x="1804.32" y="0" width="34.61" height="183.18"/><g><path class="southTejas-3" d="M901.67,1V115.1c0,14.39,2.99,30.13-2.99,43.74-2.6,5.94-6.21,11.4-10.97,15.82-3.61,3.34-11.08,9.52-16.32,9.52h59.68V1h-29.4Z"/><path class="southTejas-7" d="M844.63,1V149.73c2.13,.68,4.16,1.48,6.96,1.48,10.77,0,16.66-7.33,16.66-23.02V1h-23.62Z"/></g><rect class="southTejas-6" x="1140.23" y="1" width="73.62" height="183.17"/></g></svg>